<!DOCTYPE svg PUBLIC "-//W3C//DTD SVG 1.1//EN" "http://www.w3.org/Graphics/SVG/1.1/DTD/svg11.dtd">
<!-- Uploaded to: SVG Repo, www.svgrepo.com, Transformed by: SVG Repo Mixer Tools -->
<svg fill="#3d3846" height="800px" width="800px" version="1.1" id="Layer_1" xmlns="http://www.w3.org/2000/svg" xmlns:xlink="http://www.w3.org/1999/xlink" viewBox="0 0 512 512" xml:space="preserve" stroke="#3d3846">
<g id="SVGRepo_bgCarrier" stroke-width="0"/>
<g id="SVGRepo_tracerCarrier" stroke-linecap="round" stroke-linejoin="round"/>
<g id="SVGRepo_iconCarrier"> <g> <g> <g> <path d="M184.353,203.028h125.428c14.238,0,28.117-5.828,38.078-15.991c9.873-10.071,15.157-23.308,14.878-37.269 c-0.274-13.722-5.825-26.579-15.633-36.203c-9.255-9.083-21.321-14.32-34.196-14.892c-10.697-19.569-31.115-31.854-53.856-31.854 c-30.551,0-55.965,22.419-60.654,51.67c-3.149-0.561-6.369-0.796-9.606-0.688c-24.322,0.799-43.771,20.485-44.278,44.831 c-0.01,0.544-0.014,1.085-0.005,1.619C144.815,185.633,162.689,203.028,184.353,203.028z M165.453,163.05 c0.271-12.982,11.049-23.892,24.027-24.321c0.278-0.008,0.554-0.014,0.831-0.014c4.479,0,8.848,1.192,12.684,3.467 c3.396,2.015,7.635,1.948,10.966-0.174c3.33-2.12,5.184-5.934,4.796-9.863c-0.126-1.281-0.191-2.593-0.191-3.902 c0-22.323,18.161-40.484,40.485-40.484c16.642,0,31.397,9.983,37.591,25.435c1.735,4.327,6.13,6.986,10.756,6.524 c1.054-0.106,2.11-0.158,3.138-0.158c16.9,0,30.922,13.737,31.26,30.624c0.165,8.288-2.993,16.169-8.895,22.19 c-6.136,6.261-14.348,9.708-23.122,9.708H184.353c-10.28,0-18.76-8.135-18.904-18.136 C165.446,163.646,165.447,163.34,165.453,163.05z"/> <path d="M168.404,333.862c-10.697-19.569-31.115-31.854-53.856-31.854c-30.551,0-55.965,22.42-60.654,51.671 c-3.149-0.562-6.368-0.8-9.606-0.689c-24.322,0.799-43.771,20.485-44.278,44.832c-0.01,0.543-0.014,1.083-0.005,1.618 c0.306,21.382,18.179,38.777,39.844,38.777h125.427c14.238,0,28.117-5.828,38.078-15.991 c9.873-10.071,15.157-23.308,14.878-37.269c-0.274-13.722-5.825-26.579-15.633-36.202 C193.346,339.672,181.28,334.435,168.404,333.862z M188.399,407.567c-6.136,6.261-14.348,9.708-23.122,9.708H39.849 c-10.28,0-18.76-8.135-18.904-18.136c-0.004-0.303-0.003-0.607,0.003-0.896c0.271-12.983,11.049-23.893,24.027-24.322 c0.277-0.008,0.554-0.014,0.831-0.014c4.478,0,8.847,1.193,12.684,3.468c3.396,2.015,7.635,1.948,10.966-0.174 c3.33-2.12,5.184-5.934,4.796-9.863c-0.126-1.281-0.191-2.593-0.191-3.903c0-22.323,18.161-40.484,40.485-40.484 c16.642,0,31.397,9.983,37.591,25.435c1.735,4.327,6.131,6.988,10.756,6.524c1.054-0.106,2.11-0.158,3.138-0.158 c16.9,0,30.922,13.737,31.26,30.624C197.46,393.665,194.301,401.546,188.399,407.567z"/> <path d="M496.358,348.755c-9.255-9.083-21.321-14.32-34.195-14.892c-10.699-19.568-31.117-31.854-53.857-31.854 c-30.551,0-55.964,22.42-60.653,51.671c-3.149-0.562-6.36-0.795-9.607-0.689c-24.323,0.8-43.771,20.485-44.277,44.807 c-0.012,0.551-0.014,1.101-0.005,1.643c0.305,21.382,18.178,38.777,39.844,38.777h125.426c14.239,0,28.119-5.828,38.079-15.991 c9.873-10.072,15.156-23.309,14.877-37.27C511.716,371.236,506.164,358.378,496.358,348.755z M482.157,407.567 c-6.136,6.261-14.348,9.708-23.123,9.708H333.607c-10.281,0-18.761-8.135-18.904-18.136c-0.004-0.294-0.004-0.59,0.003-0.896 c0.27-12.983,11.048-23.893,24.026-24.322c0.278-0.008,0.554-0.014,0.83-0.014c4.479,0,8.848,1.193,12.686,3.468 c3.396,2.014,7.638,1.945,10.969-0.176c3.331-2.123,5.183-5.937,4.793-9.867c-0.127-1.268-0.191-2.579-0.191-3.896 c0-22.323,18.161-40.484,40.484-40.484c16.642,0,31.397,9.984,37.593,25.436c1.734,4.327,6.133,6.986,10.756,6.523 c1.053-0.106,2.109-0.158,3.137-0.158c16.899,0,30.921,13.737,31.259,30.624C491.217,393.665,488.058,401.546,482.157,407.567z"/> <path d="M270.422,423.25c-11.542,1.352-23.113,1.306-34.485-0.103c-5.732-0.708-10.968,3.365-11.678,9.105 c-0.711,5.738,3.365,10.968,9.105,11.678c6.705,0.83,13.522,1.251,20.262,1.251c6.357,0,12.829-0.381,19.236-1.133 c5.744-0.674,9.854-5.875,9.18-11.62C281.369,426.686,276.166,422.566,270.422,423.25z"/> <path d="M100.403,282.017c0.236,0.016,0.469,0.022,0.703,0.022c5.467,0,10.071-4.244,10.439-9.779 c1.543-23.271,8.879-46.01,21.216-65.76c3.064-4.905,1.572-11.366-3.334-14.428c-4.904-3.064-11.366-1.571-14.428,3.334 c-14.159,22.667-22.579,48.764-24.351,75.47C90.264,276.646,94.633,281.633,100.403,282.017z"/> <path d="M388.685,236.549c1.468,4.381,5.55,7.148,9.928,7.148c1.103,0,2.224-0.176,3.328-0.546 c5.484-1.838,8.44-7.773,6.603-13.256c-4.656-13.894-11.182-27.117-19.399-39.301c-3.234-4.795-9.742-6.059-14.537-2.826 c-4.794,3.235-6.06,9.742-2.826,14.537C378.943,212.924,384.631,224.446,388.685,236.549z"/> <path d="M405.294,259.777c-5.768,0.427-10.097,5.449-9.669,11.216l0.024,0.338c0.369,5.533,4.972,9.775,10.438,9.775 c0.235,0,0.469-0.007,0.707-0.023c5.771-0.384,10.137-5.374,9.752-11.145l-0.035-0.492 C416.082,263.679,411.05,259.36,405.294,259.777z"/> </g> </g> </g> </g>
</svg>